name Run_500 01_newCOP3_v24.mot
datacolumns 19
datarows 51
range 0.016667 0.06875000000000001
DataType=double
version=3
OpenSimVersion=4.3-2021-08-27-4bc7ad9
endheader
time	R_ground_force_vx	R_ground_force_vy	R_ground_force_vz	R_ground_force_px	R_ground_force_py	R_ground_force_pz	L_ground_force_vx	L_ground_force_vy	L_ground_force_vz	L_ground_force_px	L_ground_force_py	L_ground_force_pz	R_ground_torque_x	R_ground_torque_y	R_ground_torque_z	L_ground_torque_x	L_ground_torque_y	L_ground_torque_z
0.016667	0	0	0	0	0	0	-165.249069	1492.837524	-232.181885	1.043028	0	-0.338273	0	0	0	-0	20.072596	-0
0.017708	0	0	0	0	0	0	-162.488846	1512.657104	-221.723755	1.039798	0	-0.335702	0	0	0	-0	11.763769	-0
0.01875	0	0	0	0	0	0	-159.556824	1532.843628	-211.038528	1.036532	0	-0.33317	0	0	0	-0	3.698704	-0
0.019792	0	0	0	0	0	0	-156.435211	1553.196167	-200.222412	1.03324	0	-0.330708	0	0	0	0	-4.056159	0
0.020833	0	0	0	0	0	0	-153.105545	1573.529053	-189.368652	1.029928	0	-0.328342	0	0	0	0	-11.437251	0
0.021875	0	0	0	0	0	0	-149.5513	1593.669189	-178.566818	1.026601	0	-0.326093	0	0	0	0	-18.384865	0
0.022917	0	0	0	0	0	0	-145.759583	1613.455444	-167.901978	1.023261	0	-0.323979	0	0	0	0	-24.844084	0
0.023958	0	0	0	0	0	0	-141.722183	1632.739258	-157.453751	1.01991	0	-0.322015	0	0	0	0	-30.765663	0
0.025	0	0	0	0	0	0	-137.436188	1651.384888	-147.295502	1.016548	0	-0.320209	0	0	0	0	-36.106812	0
0.026042	0	0	0	0	0	0	-132.904022	1669.270142	-137.493561	1.013179	0	-0.318568	0	0	0	0	-40.831875	0
0.027083	0	0	0	0	0	0	-128.133224	1686.287476	-128.1064	1.009802	0	-0.317095	0	0	0	0	-44.912918	0
0.028125	0	0	0	0	0	0	-123.135971	1702.344116	-119.184189	1.00642	0	-0.315791	0	0	0	0	-48.330158	0
0.029167	0	0	0	0	0	0	-117.928276	1717.362427	-110.768219	1.003035	0	-0.314653	0	0	0	0	-51.072281	0
0.030208	0	0	0	0	0	0	-112.529167	1731.280029	-102.890656	0.999647	0	-0.313678	0	0	0	0	-53.1366	0
0.03125	0	0	0	0	0	0	-106.959755	1744.049194	-95.574387	0.99626	0	-0.312859	0	0	0	0	-54.529083	0
0.032292	0	0	0	0	0	0	-101.24234	1755.637085	-88.83300800000001	0.992876	0	-0.312188	0	0	0	0	-55.264206	0
0.033333	0	0	0	0	0	0	-95.399582	1766.024658	-82.671013	0.989496	0	-0.311657	0	0	0	0	-55.364685	0
0.034375	0	0	0	0	0	0	-89.45386499999999	1775.206177	-77.084137	0.9861220000000001	0	-0.311256	0	0	0	0	-54.861046	0
0.035417	0	0	0	0	0	0	-83.426773	1783.188477	-72.059792	0.982758	0	-0.310974	0	0	0	0	-53.791073	0
0.036458	0	0	0	0	0	0	-77.338814	1789.989746	-67.577759	0.979403	0	-0.310799	0	0	0	0	-52.199127	0
0.0375	0	0	0	0	0	0	-71.209267	1795.638306	-63.610863	0.976061	0	-0.31072	0	0	0	0	-50.135342	0
0.038542	0	0	0	0	0	0	-65.056252	1800.172119	-60.125893	0.972732	0	-0.310726	0	0	0	0	-47.654762	0
0.039583	0	0	0	0	0	0	-58.896847	1803.636475	-57.084507	0.969417	0	-0.310803	0	0	0	0	-44.816341	0
0.040625	0	0	0	0	0	0	-52.747326	1806.08374	-54.44426	0.966117	0	-0.31094	0	0	0	0	-41.681961	0
0.041667	0	0	0	0	0	0	-46.623333	1807.570923	-52.159672	0.962833	0	-0.311126	0	0	0	0	-38.315323	0
0.042708	0	0	0	0	0	0	-40.540047	1808.158813	-50.183323	0.959566	0	-0.311351	0	0	0	0	-34.780903	0
0.04375	0	0	0	0	0	0	-34.512253	1807.910522	-48.466915	0.956314	0	-0.311603	0	0	0	0	-31.142855	0
0.044792	0	0	0	0	0	0	-28.554268	1806.889282	-46.962368	0.953079	0	-0.311872	0	0	0	0	-27.463955	0
0.045833	0	0	0	0	0	0	-22.679747	1805.157959	-45.622829	0.949861	0	-0.31215	0	0	0	0	-23.804607	0
0.046875	0	0	0	0	0	0	-16.901371	1802.7771	-44.403629	0.946658	0	-0.312428	0	0	0	0	-20.221884	0
0.047917	0	0	0	0	0	0	-11.230438	1799.803589	-43.263161	0.943472	0	-0.3127	0	0	0	0	-16.768667	0
0.048958	0	0	0	0	0	0	-5.676406	1796.289795	-42.163647	0.9403010000000001	0	-0.312958	0	0	0	0	-13.492886	0
0.05	0	0	0	0	0	0	-0.246446	1792.282227	-41.071804	0.937146	0	-0.313197	0	0	0	0	-10.436849	0
0.051042	0	0	0	0	0	0	5.054945	1787.821045	-39.959373	0.934006	0	-0.313414	0	0	0	0	-7.636726	0
0.052083	0	0	0	0	0	0	10.226216	1782.939453	-38.803509	0.930881	0	-0.313604	0	0	0	0	-5.122135	0
0.053125	0	0	0	0	0	0	15.268885	1777.663086	-37.587044	0.92777	0	-0.313767	0	0	0	0	-2.915877	0
0.054167	0	0	0	0	0	0	20.187468	1772.010132	-36.298595	0.924674	0	-0.3139	0	0	0	0	-1.03381	0
0.055208	0	0	0	0	0	0	24.989244	1765.991211	-34.932541	0.921591	0	-0.314004	0	0	0	-0	0.515144	-0
0.05625	0	0	0	0	0	0	29.683836	1759.609863	-33.48885	0.9185219999999999	0	-0.31408	0	0	0	-0	1.728852	-0
0.057292	0	0	0	0	0	0	34.282646	1752.863525	-31.972799	0.915466	0	-0.314129	0	0	0	-0	2.6117	-0
0.058333	0	0	0	0	0	0	38.798233	1745.743164	-30.394552	0.912422	0	-0.314154	0	0	0	-0	3.1742	-0
0.059375	0	0	0	0	0	0	43.243607	1738.235107	-28.768644	0.909389	0	-0.314159	0	0	0	-0	3.432488	-0
0.060417	0	0	0	0	0	0	47.631577	1730.321533	-27.113379	0.906368	0	-0.314147	0	0	0	-0	3.407732	-0
0.061458	0	0	0	0	0	0	51.974182	1721.981812	-25.450136	0.903356	0	-0.314121	0	0	0	-0	3.125456	-0
0.0625	0	0	0	0	0	0	56.282192	1713.192993	-23.80265	0.900352	0	-0.314088	0	0	0	-0	2.614803	-0
0.063542	0	0	0	0	0	0	60.5648	1703.931274	-22.196226	0.897356	0	-0.314051	0	0	0	-0	1.907757	-0
0.064583	0	0	0	0	0	0	64.829437	1694.173096	-20.656963	0.894365	0	-0.314014	0	0	0	-0	1.038328	-0
0.065625	0	0	0	0	0	0	69.081749	1683.895386	-19.210966	0.891378	0	-0.313982	0	0	0	-0	0.04174	-0
0.066667	0	0	0	0	0	0	73.325676	1673.077393	-17.883591	0.888393	0	-0.31396	0	0	0	0	-1.046375	0
0.067708	0	0	0	0	0	0	77.563637	1661.700317	-16.698729	0.885408	0	-0.31395	0	0	0	0	-2.190762	0
0.06875000000000001	0	0	0	0	0	0	81.796753	1649.748779	-15.678152	0.88242	0	-0.313957	0	0	0	0	-3.357272	0
